<?xml version="1.0" encoding="iso-8859-1"?>
<!-- Generator: Adobe Illustrator 18.0.0, SVG Export Plug-In . SVG Version: 6.00 Build 0)  -->
<!DOCTYPE svg PUBLIC "-//W3C//DTD SVG 1.1//EN" "http://www.w3.org/Graphics/SVG/1.1/DTD/svg11.dtd">
<svg version="1.1" id="Capa_1" xmlns="http://www.w3.org/2000/svg" xmlns:xlink="http://www.w3.org/1999/xlink" x="0px" y="0px"
	 viewBox="0 0 297 297" xml:space="preserve" fill="white">
<g>
	<path d="M289.234,62.627l-32.197-7.198c-8.21-26.361-32.832-45.553-61.851-45.553c-28.934,0-53.495,19.083-61.774,45.327
		l-31.82,6.945L12.101,42.14c-2.938-0.658-6.024,0.057-8.378,1.942C1.37,45.967,0,48.818,0,51.834v204.87
		c0,4.651,3.227,8.679,7.766,9.693l91.634,20.487c0.718,0.161,1.444,0.239,2.167,0.239c0.711,0,1.416-0.085,2.106-0.234
		c0.004,0,0.008,0.007,0.012,0.006l91.724-20.02l89.492,20.009c0.717,0.161,1.443,0.239,2.166,0.239
		c2.236,0,4.433-0.756,6.211-2.181c2.354-1.886,3.723-4.737,3.723-7.752V72.32C297,67.669,293.772,63.642,289.234,62.627z
		 M91.633,264.792l-71.767-16.045V64.232l71.767,16.045V264.792z M195.186,29.742c24.757,0,44.898,20.151,44.898,44.921
		c0,33.244-31.031,68.25-44.905,82.237c-13.877-13.964-44.89-48.904-44.89-82.237C150.289,49.894,170.43,29.742,195.186,29.742z
		 M111.499,264.856V80.319l18.948-4.136c0.942,44.688,43,87.415,55.054,98.823v73.698L111.499,264.856z M277.134,264.792
		l-71.767-16.045v-73.74c12.638-12.049,53.477-54.565,54.555-98.577l17.212,3.848V264.792z"/>
	<path d="M221.91,74.663c0-14.812-11.988-26.862-26.724-26.862c-14.735,0-26.724,12.051-26.724,26.862s11.988,26.862,26.724,26.862
		C209.922,101.525,221.91,89.475,221.91,74.663z M188.329,74.663c0-3.857,3.076-6.996,6.857-6.996c3.781,0,6.857,3.139,6.857,6.996
		c0,3.858-3.076,6.996-6.857,6.996C191.405,81.659,188.329,78.521,188.329,74.663z"/>
</g>
<g>
</g>
<g>
</g>
<g>
</g>
<g>
</g>
<g>
</g>
<g>
</g>
<g>
</g>
<g>
</g>
<g>
</g>
<g>
</g>
<g>
</g>
<g>
</g>
<g>
</g>
<g>
</g>
<g>
</g>
</svg>
